<svg width="20" height="20" viewBox="0 0 20 20" fill="none" xmlns="http://www.w3.org/2000/svg">
<path d="M7.49935 18.3332H12.4993C16.666 18.3332 18.3327 16.6665 18.3327 12.4998V7.49984C18.3327 3.33317 16.666 1.6665 12.4993 1.6665H7.49935C3.33268 1.6665 1.66602 3.33317 1.66602 7.49984V12.4998C1.66602 16.6665 3.33268 18.3332 7.49935 18.3332Z" stroke="#616161" stroke-width="1.5" stroke-linecap="round" stroke-linejoin="round"/>
<path d="M14.1673 2.0332V10.3499C14.1673 11.9915 12.9923 12.6332 11.5507 11.7665L10.4507 11.1082C10.2007 10.9582 9.80065 10.9582 9.55065 11.1082L8.45065 11.7665C7.00898 12.6249 5.83398 11.9915 5.83398 10.3499V2.0332" stroke="#616161" stroke-width="1.5" stroke-linecap="round" stroke-linejoin="round"/>
<path d="M7.49935 18.3332H12.4993C16.666 18.3332 18.3327 16.6665 18.3327 12.4998V7.49984C18.3327 3.33317 16.666 1.6665 12.4993 1.6665H7.49935C3.33268 1.6665 1.66602 3.33317 1.66602 7.49984V12.4998C1.66602 16.6665 3.33268 18.3332 7.49935 18.3332Z" stroke="#616161" stroke-width="1.5" stroke-linecap="round" stroke-linejoin="round"/>
<path d="M14.1673 2.0332V10.3499C14.1673 11.9915 12.9923 12.6332 11.5507 11.7665L10.4507 11.1082C10.2007 10.9582 9.80065 10.9582 9.55065 11.1082L8.45065 11.7665C7.00898 12.6249 5.83398 11.9915 5.83398 10.3499V2.0332" stroke="#616161" stroke-width="1.5" stroke-linecap="round" stroke-linejoin="round"/>
</svg>
