<svg width="86" height="86" viewBox="0 0 86 86" fill="none" xmlns="http://www.w3.org/2000/svg">
<path d="M35.9165 57.1667C35.9165 51.2875 35.9165 46.5417 46.5415 46.5417H60.7082C71.3332 46.5417 71.3332 43 71.3332 35.9167V28.8333C71.3332 21.75 71.3332 18.2083 60.7082 18.2083H57.1665" stroke="#292D32" stroke-width="1.5" stroke-linecap="round" stroke-linejoin="round"/>
<path d="M43.0002 7.58333H28.8335C26.5314 14.4896 26.5314 21.9271 28.8335 28.8333H43.0002C45.3022 21.9271 45.3022 14.4896 43.0002 7.58333Z" stroke="#292D32" stroke-width="1.5" stroke-linecap="round" stroke-linejoin="round"/>
<path d="M28.8332 7.58333H25.2915C18.2082 7.58333 14.6665 11.125 14.6665 18.2083C14.6665 25.2917 18.2082 28.8333 25.2915 28.8333H28.8332C25.2915 21.75 25.2915 14.6667 28.8332 7.58333Z" stroke="#292D32" stroke-width="1.5" stroke-linecap="round" stroke-linejoin="round"/>
<path d="M46.5417 7.58333H43C46.5417 14.6667 46.5417 21.75 43 28.8333H46.5417C53.625 28.8333 57.1667 25.2917 57.1667 18.2083C57.1667 11.125 53.625 7.58333 46.5417 7.58333Z" stroke="#292D32" stroke-width="1.5" stroke-linecap="round" stroke-linejoin="round"/>
<path d="M34.146 78.4167H37.6877C43.0002 78.4167 43.0002 74.875 43.0002 73.1042V62.4792C43.0002 60.7083 43.0002 57.1667 37.6877 57.1667H34.146C28.8335 57.1667 28.8335 60.7083 28.8335 62.4792V73.1042C28.8335 74.875 28.8335 78.4167 34.146 78.4167Z" stroke="#292D32" stroke-width="1.5" stroke-linecap="round" stroke-linejoin="round"/>
</svg>
