<svg width="86" height="86" viewBox="0 0 86 86" fill="none" xmlns="http://www.w3.org/2000/svg">
<path d="M7.5835 78.4167H78.4168" stroke="#292D32" stroke-width="1.5" stroke-linecap="round" stroke-linejoin="round"/>
<path d="M11.5146 78.4167V46.5417C11.5146 40.6625 16.7917 35.9167 23.3084 35.9167H62.6563C69.173 35.9167 74.4501 40.6625 74.4501 46.5417V78.4167" stroke="#292D32" stroke-width="1.5" stroke-linecap="round" stroke-linejoin="round"/>
<path d="M20.1919 35.9167V25.8937C20.1919 21.6437 24.0169 18.2083 28.7627 18.2083H57.2731C61.9836 18.2083 65.8086 21.6437 65.8086 25.8937V35.9167" stroke="#292D32" stroke-width="1.5" stroke-linecap="round" stroke-linejoin="round"/>
<path d="M13.002 50.0125L14.3124 50.0479C16.9332 50.0833 19.0228 52.2083 19.0228 54.8292V55.9979C19.0228 58.6187 21.1478 60.7792 23.804 60.7792C26.4249 60.7792 28.5853 58.6542 28.5853 55.9979V54.9C28.5853 52.2792 30.7103 50.1187 33.3665 50.1187C35.9874 50.1187 38.1478 52.2437 38.1478 54.9V55.9979C38.1478 58.6187 40.2728 60.7792 42.929 60.7792C45.5499 60.7792 47.7103 58.6542 47.7103 55.9979V54.9C47.7103 52.2792 49.8353 50.1187 52.4915 50.1187C55.1124 50.1187 57.2728 52.2437 57.2728 54.9V55.9979C57.2728 58.6187 59.3978 60.7792 62.054 60.7792C64.6749 60.7792 66.8353 58.6542 66.8353 55.9979V54.9C66.8353 52.2792 68.9603 50.1187 71.6165 50.1187H73.2103" stroke="#292D32" stroke-width="1.5" stroke-linecap="round" stroke-linejoin="round"/>
<path d="M28.8335 18.2083V11.125" stroke="#292D32" stroke-width="1.5" stroke-linecap="round" stroke-linejoin="round"/>
<path d="M57.1665 18.2083V11.125" stroke="#292D32" stroke-width="1.5" stroke-linecap="round" stroke-linejoin="round"/>
<path d="M43 18.2083V7.58333" stroke="#292D32" stroke-width="1.5" stroke-linecap="round" stroke-linejoin="round"/>
</svg>
