<svg width="49" height="41" viewBox="0 0 49 41" fill="none" xmlns="http://www.w3.org/2000/svg">
<path d="M25.7205 9.97209L25.6308 9.94634C25.2845 9.84698 25.0784 9.49191 25.1853 9.14698L25.7205 9.97209ZM25.7205 9.97209L25.7257 9.96636M25.7205 9.97209L25.7257 9.96636M25.7257 9.96636C26.0416 10.0099 26.3549 9.82603 26.4505 9.51558C27.2609 6.89615 29.8171 5.06045 32.6708 5.06045C33.0301 5.06045 33.3315 4.77873 33.3315 4.41925C33.3315 4.05975 33.0301 3.77804 32.6708 3.77804C29.127 3.77804 26.144 6.048 25.1853 9.14689L25.7257 9.96636Z" fill="black" stroke="#F9FFF9" stroke-width="0.3"/>
<path d="M39.8194 28.4884H36.7556C36.4736 28.4884 36.2449 28.2684 36.2449 27.9972C36.2449 27.726 36.4736 27.506 36.7556 27.506H39.8194C44.0427 27.506 47.4789 24.2005 47.4789 20.138C47.4789 16.0754 44.0427 12.7699 39.8194 12.7699H39.7457C39.5976 12.7699 39.4568 12.7082 39.3598 12.6005C39.2628 12.4928 39.219 12.35 39.2402 12.2089C39.2858 11.903 39.3087 11.5956 39.3087 11.2963C39.3087 7.77549 36.3306 4.91068 32.6704 4.91068C31.2465 4.91068 29.8885 5.33873 28.7432 6.14885C28.4915 6.32674 28.1341 6.2478 27.9886 5.98149C24.7449 0.0400754 16.273 -0.757796 11.8807 4.41072C10.0304 6.58813 9.30335 9.42061 9.88591 12.1812C9.95011 12.4861 9.70755 12.7703 9.38548 12.7703H9.18087C4.95757 12.7703 1.52132 16.0758 1.52132 20.1383C1.52132 24.2009 4.95757 27.5064 9.18087 27.5064H12.2446C12.5266 27.5064 12.7553 27.7263 12.7553 27.9976C12.7553 28.2688 12.5266 28.4888 12.2446 28.4888H9.18087C4.39434 28.4888 0.5 24.7427 0.5 20.1383C0.5 15.6631 4.17874 11.9987 8.78001 11.7966C8.34779 8.93254 9.1743 6.04357 11.0899 3.789C15.7925 -1.74508 24.8046 -1.12478 28.6143 5.04612C29.8296 4.31317 31.2203 3.92867 32.6702 3.92867C37.1048 3.92867 40.6187 7.55937 40.3112 11.8012C44.8701 12.0472 48.5 15.6922 48.5 20.1379C48.5 24.7427 44.6057 28.4884 39.8191 28.4884L39.8194 28.4884Z" fill="black"/>
<path d="M11.5155 27.7198C11.5155 34.5794 17.3151 40.15 24.4316 40.15C31.5482 40.15 37.3477 34.5794 37.3477 27.7198C37.3477 20.8602 31.5482 15.2896 24.4316 15.2896C17.315 15.2896 11.5155 20.8603 11.5155 27.7198ZM12.837 27.7198C12.837 21.5787 18.033 16.5723 24.4316 16.5723C30.8301 16.5723 36.0261 21.5786 36.0261 27.7198C36.0261 33.8609 30.8301 38.8674 24.4316 38.8674C18.033 38.8674 12.837 33.861 12.837 27.7198Z" fill="black" stroke="#F9FFF9" stroke-width="0.3"/>
<path d="M24.141 32.6632C24.141 32.95 24.3811 33.1728 24.6649 33.1728C24.9485 33.1728 25.1887 32.9503 25.1887 32.6632V23.3131C25.1887 23.0263 24.9486 22.8035 24.6649 22.8035C24.3811 22.8035 24.141 23.0263 24.141 23.3131V32.6632Z" fill="black" stroke="#483EA8" stroke-width="0.3"/>
<path d="M27.2873 26.5534C27.3899 26.652 27.5237 26.7006 27.6557 26.7006L21.9386 26.4453L22.0425 26.5534L22.0426 26.5533C22.0426 26.5533 22.0426 26.5533 22.0426 26.5533L24.6649 24.0308L27.2873 26.5534ZM25.0333 22.9517C24.8292 22.7554 24.5004 22.7552 24.2965 22.9518L28.0242 26.5532C28.2314 26.3537 28.2313 26.028 28.024 25.8286L25.0333 22.9517ZM27.6557 26.7006C27.7873 26.7006 27.9213 26.6525 28.0241 26.5533L27.6557 26.7006Z" fill="black" stroke="#483EA8" stroke-width="0.3"/>
</svg>
