<svg width="77" height="71" viewBox="0 0 77 71" fill="none" xmlns="http://www.w3.org/2000/svg">
<g clip-path="url(#clip0_405_1515)">
<path d="M64.7447 11.2716C57.5062 4.59545 48.0119 1.27012 38.5313 1.2765C38.0953 1.2765 37.6594 1.28288 37.2234 1.29565C35.182 1.35947 33.1336 1.5701 31.113 1.94667L30.9953 1.97858C29.8397 2.32963 28.9746 2.87853 28.428 3.57423C27.8813 4.26355 27.6806 5.06138 27.6875 5.76985C27.6944 7.02722 28.2273 8.10588 28.594 8.76328C28.6909 8.92923 28.774 9.06965 28.8432 9.17177L28.9262 9.29304C29.9711 11.1504 30.4971 13.1992 30.4971 15.2416C30.4971 18.5414 29.1338 21.8348 26.4073 24.3496C23.6808 26.8643 20.1238 28.1089 16.5461 28.1153C14.131 28.1153 11.7159 27.5409 9.56376 26.3984C9.47379 26.3537 9.37691 26.3218 9.28003 26.2963C8.38042 25.9069 7.53617 25.7218 6.75419 25.7218C5.98606 25.7218 5.29405 25.8942 4.7266 26.1622C3.86851 26.5643 3.25954 27.1579 2.85126 27.6813C2.43605 28.2047 2.20769 28.6706 2.1108 28.8876L2.04852 29.0727C1.60564 31.2045 1.39111 33.3682 1.39111 35.5319C1.39111 44.2824 4.99649 53.033 12.2418 59.7155C19.1689 66.1045 28.165 69.4362 37.2373 69.7171C37.6594 69.7299 38.0815 69.7362 38.4967 69.7362C47.9911 69.7362 57.4993 66.3981 64.7516 59.7155C72.0039 53.0266 75.63 44.2569 75.63 35.5C75.63 26.7367 72.0039 17.967 64.7516 11.2844L64.7447 11.2716Z" fill="#F2ED7C"/>
<path d="M38.4965 71C38.0606 71 37.6246 70.9936 37.1886 70.9809C27.3898 70.6745 18.186 66.9917 11.259 60.6028C3.9929 53.9074 0 45.0037 0 35.5255C0 33.2852 0.228363 31.0322 0.68509 28.8302L0.830413 28.3898C0.989575 28.0451 1.2733 27.509 1.73003 26.9346C2.39436 26.0984 3.19017 25.4538 4.0967 25.0325C5.75753 24.2539 7.7436 24.2602 9.75043 25.0964C9.92343 25.1474 10.0895 25.2113 10.2418 25.2942C12.1517 26.3091 14.3246 26.8388 16.539 26.8388C19.8953 26.8388 23.0509 25.6325 25.4245 23.4497C27.7981 21.254 29.106 18.3436 29.1129 15.2416C29.1129 13.3971 28.6354 11.5589 27.7219 9.92494L27.6735 9.84835C27.5835 9.70793 27.4867 9.54836 27.3759 9.35689C26.6701 8.1059 26.3172 6.93788 26.3102 5.78263C26.3102 4.68483 26.6562 3.66361 27.3206 2.82749C28.0541 1.89563 29.1475 1.20631 30.573 0.772294L30.8498 0.702086C32.8913 0.325512 35.0226 0.0957389 37.1886 0.0255304C37.6384 0.0127652 38.0883 0 38.545 0C48.8283 0 58.4818 3.68276 65.7341 10.3717C73.0071 17.0798 77.0138 26.0027 77.0138 35.4936C77.0138 44.9782 73.0071 53.901 65.7341 60.6091C58.468 67.3109 48.7937 71.0064 38.5104 71.0064L38.4965 71ZM3.38393 29.3727C2.96872 31.396 2.76112 33.464 2.76112 35.5255C2.76112 44.3208 6.4703 52.5926 13.2036 58.8092C19.6323 64.7387 28.1787 68.1598 37.2717 68.4406C37.673 68.4533 38.0813 68.4597 38.4896 68.4597C48.0394 68.4597 57.0147 65.0323 63.7618 58.8092C70.5159 52.5798 74.232 44.3016 74.232 35.4936C74.232 26.6856 70.5159 18.401 63.7618 12.178C57.0355 5.97411 48.074 2.55304 38.5311 2.55304C38.109 2.55304 37.6869 2.55942 37.2648 2.57219C35.2649 2.63601 33.2995 2.84664 31.4173 3.1913L31.3758 3.20406C30.5453 3.45937 29.9087 3.84871 29.535 4.3274C29.1336 4.83163 29.0575 5.38691 29.0575 5.76987C29.0575 6.75279 29.4866 7.61444 29.8049 8.17611C29.8879 8.31652 29.9571 8.43779 30.0125 8.52077L30.1301 8.70586C31.2581 10.71 31.8532 12.9694 31.8532 15.2416C31.8532 19.0201 30.2547 22.5752 27.3552 25.2496C24.4626 27.9175 20.615 29.3855 16.5183 29.3855C13.8402 29.3855 11.2106 28.7408 8.89925 27.5281L8.67089 27.4515C7.36991 26.8899 6.24193 26.8707 5.32848 27.3047C4.80947 27.5473 4.34583 27.9302 3.93754 28.4409C3.66766 28.7855 3.48773 29.1046 3.38393 29.328L3.37009 29.3791L3.38393 29.3727Z" fill="black"/>
<path d="M28.0544 47.0779C28.1088 43.0809 24.6399 39.7999 20.3062 39.7497C15.9726 39.6994 12.4153 42.899 12.3608 46.896C12.3064 50.8931 15.7753 54.174 20.109 54.2243C24.4426 54.2745 27.9999 51.075 28.0544 47.0779Z" fill="#F2ED7C"/>
<path d="M20.2069 54.8584C15.5012 54.8584 11.6675 51.3225 11.6675 46.9823C11.6675 42.6422 15.5012 39.1062 20.2069 39.1062C24.9126 39.1062 28.7463 42.6422 28.7463 46.9823C28.7463 51.3225 24.9126 54.8584 20.2069 54.8584ZM20.2069 40.3827C16.2624 40.3827 13.0515 43.3442 13.0515 46.9823C13.0515 50.6204 16.2624 53.5819 20.2069 53.5819C24.1513 53.5819 27.3623 50.6204 27.3623 46.9823C27.3623 43.3442 24.1513 40.3827 20.2069 40.3827Z" fill="#020202"/>
<path d="M50.4751 54.7563C50.4751 58.7518 46.9597 61.9942 42.6277 61.9942C38.2957 61.9942 34.7803 58.7518 34.7803 54.7563C34.7803 50.7608 38.2957 47.5184 42.6277 47.5184C46.9597 47.5184 50.4751 50.7608 50.4751 54.7563Z" fill="#F2ED7C"/>
<path d="M42.6278 62.6324C37.9221 62.6324 34.0884 59.0964 34.0884 54.7563C34.0884 50.4161 37.9221 46.8801 42.6278 46.8801C47.3335 46.8801 51.1672 50.4161 51.1672 54.7563C51.1672 59.0964 47.3335 62.6324 42.6278 62.6324ZM42.6278 48.1566C38.6833 48.1566 35.4724 51.1182 35.4724 54.7563C35.4724 58.3943 38.6833 61.3559 42.6278 61.3559C46.5722 61.3559 49.7832 58.3943 49.7832 54.7563C49.7832 51.1182 46.5722 48.1566 42.6278 48.1566Z" fill="#020202"/>
<path d="M66.1767 38.4998C66.1767 42.4953 62.6613 45.7377 58.3293 45.7377C53.9973 45.7377 50.4819 42.4953 50.4819 38.4998C50.4819 34.5043 53.9973 31.262 58.3293 31.262C62.6613 31.262 66.1767 34.5043 66.1767 38.4998Z" fill="white"/>
<path d="M58.3226 46.3759C53.61 46.3759 49.7832 42.8399 49.7832 38.4998C49.7832 34.1596 53.6169 30.6237 58.3226 30.6237C63.0283 30.6237 66.862 34.1596 66.862 38.4998C66.862 42.8399 63.0283 46.3759 58.3226 46.3759ZM58.3226 31.9002C54.3781 31.9002 51.1672 34.8617 51.1672 38.4998C51.1672 42.1379 54.3781 45.0994 58.3226 45.0994C62.2671 45.0994 65.478 42.1379 65.478 38.4998C65.478 34.8617 62.2671 31.9002 58.3226 31.9002Z" fill="black"/>
<path d="M61.2773 18.1202C61.2773 22.1157 57.7619 25.3581 53.4299 25.3581C49.0979 25.3581 45.5825 22.1157 45.5825 18.1202C45.5825 14.1247 49.0979 10.8823 53.4299 10.8823C57.7619 10.8823 61.2773 14.1247 61.2773 18.1202Z" fill="#F2ED7C"/>
<path d="M53.43 25.9963C48.7244 25.9963 44.8906 22.4603 44.8906 18.1201C44.8906 13.78 48.7244 10.244 53.43 10.244C58.1357 10.244 61.9694 13.78 61.9694 18.1201C61.9694 22.4603 58.1357 25.9963 53.43 25.9963ZM53.43 11.5205C49.4856 11.5205 46.2746 14.4821 46.2746 18.1201C46.2746 21.7582 49.4856 24.7197 53.43 24.7197C57.3745 24.7197 60.5854 21.7582 60.5854 18.1201C60.5854 14.4821 57.3745 11.5205 53.43 11.5205Z" fill="#020202"/>
</g>
<defs>
<clipPath id="clip0_405_1515">
<rect width="77" height="71" fill="white"/>
</clipPath>
</defs>
</svg>
