<svg width="25" height="25" viewBox="0 0 25 25" fill="none" xmlns="http://www.w3.org/2000/svg">
<path d="M22.5 11.6V7.4C22.5 3.9 21.1 2.5 17.6 2.5H13.4C9.9 2.5 8.5 3.9 8.5 7.4V8.5H11.6C15.1 8.5 16.5 9.9 16.5 13.4V16.5H17.6C21.1 16.5 22.5 15.1 22.5 11.6Z" stroke="#292D32" stroke-width="1.5" stroke-linecap="round" stroke-linejoin="round"/>
<path d="M16.5 17.6V13.4C16.5 9.9 15.1 8.5 11.6 8.5H7.4C3.9 8.5 2.5 9.9 2.5 13.4V17.6C2.5 21.1 3.9 22.5 7.4 22.5H11.6C15.1 22.5 16.5 21.1 16.5 17.6Z" stroke="#292D32" stroke-width="1.5" stroke-linecap="round" stroke-linejoin="round"/>
<path d="M6.58008 15.5L8.53008 17.45L12.4201 13.55" stroke="#292D32" stroke-width="1.5" stroke-linecap="round" stroke-linejoin="round"/>
</svg>
