<svg width="25" height="25" viewBox="0 0 25 25" fill="none" xmlns="http://www.w3.org/2000/svg">
<path d="M7.5 12.3232C3.5 12.3232 3.5 14.1132 3.5 16.3232V17.3232C3.5 20.0832 3.5 22.3232 8.5 22.3232H16.5C20.5 22.3232 21.5 20.0832 21.5 17.3232V16.3232C21.5 14.1132 21.5 12.3232 17.5 12.3232C16.5 12.3232 16.22 12.5332 15.7 12.9232L14.68 14.0032C13.5 15.2632 11.5 15.2632 10.31 14.0032L9.3 12.9232C8.78 12.5332 8.5 12.3232 7.5 12.3232Z" stroke="black" stroke-width="1.5" stroke-miterlimit="10" stroke-linecap="round" stroke-linejoin="round"/>
<path d="M19.5 12.3232V6.32324C19.5 4.11324 19.5 2.32324 15.5 2.32324H9.5C5.5 2.32324 5.5 4.11324 5.5 6.32324V12.3232" stroke="black" stroke-width="1.5" stroke-miterlimit="10" stroke-linecap="round" stroke-linejoin="round"/>
<path d="M11.0498 9.55322H14.3798" stroke="black" stroke-width="1.5" stroke-linecap="round" stroke-linejoin="round"/>
<path d="M10.2202 6.55322H15.2202" stroke="black" stroke-width="1.5" stroke-linecap="round" stroke-linejoin="round"/>
</svg>
