<svg width="25" height="25" viewBox="0 0 25 25" fill="none" xmlns="http://www.w3.org/2000/svg">
<path d="M14.5 9.8V12.7H17.1C17.3 12.7 17.4 12.9 17.4 13.1L17 15C17 15.1 16.8 15.2 16.7 15.2H14.5V22.5H11.5V15.3H9.8C9.6 15.3 9.5 15.2 9.5 15V13.1C9.5 12.9 9.6 12.8 9.8 12.8H11.5V9.5C11.5 7.8 12.8 6.5 14.5 6.5H17.2C17.4 6.5 17.5 6.6 17.5 6.8V9.2C17.5 9.4 17.4 9.5 17.2 9.5H14.8C14.6 9.5 14.5 9.6 14.5 9.8Z" stroke="#17191C" stroke-width="1.5" stroke-miterlimit="10" stroke-linecap="round"/>
<path d="M15.5 22.5H9.5C4.5 22.5 2.5 20.5 2.5 15.5V9.5C2.5 4.5 4.5 2.5 9.5 2.5H15.5C20.5 2.5 22.5 4.5 22.5 9.5V15.5C22.5 20.5 20.5 22.5 15.5 22.5Z" stroke="#17191C" stroke-width="1.5" stroke-linecap="round" stroke-linejoin="round"/>
</svg>
