<svg width="110" height="118" viewBox="0 0 110 118" fill="none" xmlns="http://www.w3.org/2000/svg">
<g clip-path="url(#clip0_405_1539)">
<path d="M68.23 83.41C68.23 101.3 53.4 115.81 35.11 115.81C16.82 115.81 2 101.3 2 83.41C2 65.52 16.82 51.01 35.11 51.01C53.4 51.01 68.23 65.52 68.23 83.41Z" fill="#F2ED7C"/>
<path d="M35.11 117.81C15.75 117.81 0 102.38 0 83.41C0 64.44 15.75 49.01 35.11 49.01C54.47 49.01 70.23 64.44 70.23 83.41C70.23 102.38 54.48 117.81 35.11 117.81ZM35.11 53.01C17.95 53.01 3.99 66.65 3.99 83.41C3.99 100.17 17.95 113.81 35.11 113.81C52.27 113.81 66.24 100.17 66.24 83.41C66.24 66.65 52.28 53.01 35.11 53.01Z" fill="#020202"/>
<path d="M2.42018 30.81L22.9402 39.75C23.3502 39.93 23.8102 39.8 24.0302 39.46C24.1702 39.24 24.2002 38.96 24.1102 38.69L17.3002 17.35C17.1402 16.85 16.6602 16.53 16.1702 16.59C15.8202 16.63 15.5602 16.87 15.4802 17.22L13.3202 23.91L8.06018 18.09C7.47018 17.44 6.60018 17.11 5.72018 17.22C5.17018 17.29 4.66018 17.52 4.25018 17.89C3.15018 18.89 3.06018 20.6 4.05018 21.7L9.34018 27.56L2.45018 28.99C2.07018 29.04 1.79018 29.31 1.74018 29.69C1.67018 30.15 1.95018 30.62 2.40018 30.81H2.42018Z" fill="white"/>
<path d="M23.3198 40.83C23.0498 40.83 22.7898 40.7799 22.5498 40.6699L2.01982 31.7299C1.15982 31.3499 0.639822 30.4599 0.769822 29.5499C0.889822 28.7299 1.50982 28.12 2.32982 28L7.45982 26.93L3.32982 22.36C1.96982 20.85 2.08982 18.51 3.59982 17.14C4.17982 16.63 4.86982 16.31 5.61982 16.22C6.82982 16.07 8.01982 16.53 8.81982 17.41L12.9098 21.94L14.5398 16.9C14.6898 16.23 15.2898 15.68 16.0598 15.59C16.9798 15.47 17.9598 16.1 18.2598 17.04L25.0698 38.38C25.2498 38.92 25.1798 39.51 24.8798 39.99C24.5498 40.51 23.9698 40.82 23.3298 40.82L23.3198 40.83ZM2.87982 29.93L23.1298 38.75L16.3698 17.7099L13.7498 25.85L7.32982 18.75C6.95982 18.34 6.40982 18.13 5.85982 18.2C5.51982 18.24 5.19982 18.39 4.92982 18.63C4.23982 19.2499 4.17982 20.33 4.80982 21.03L11.2698 28.18L2.86982 29.93H2.87982Z" fill="black"/>
<path d="M99.4599 2H48.8799C44.4727 2 40.8999 5.57277 40.8999 9.98V60.56C40.8999 64.9672 44.4727 68.54 48.8799 68.54H99.4599C103.867 68.54 107.44 64.9672 107.44 60.56V9.98C107.44 5.57277 103.867 2 99.4599 2Z" fill="#F2ED7C"/>
<path d="M99.4602 70.53H48.8902C43.3902 70.53 38.9102 66.05 38.9102 60.55V9.98C38.9102 4.48 43.3902 0 48.8902 0H99.4602C104.96 0 109.44 4.48 109.44 9.98V60.55C109.44 66.05 104.96 70.53 99.4602 70.53ZM48.8902 3.99C45.5902 3.99 42.9002 6.68 42.9002 9.98V60.55C42.9002 63.85 45.5902 66.54 48.8902 66.54H99.4602C102.76 66.54 105.45 63.85 105.45 60.55V9.98C105.45 6.68 102.76 3.99 99.4602 3.99H48.8902Z" fill="black"/>
<path d="M74.17 40.78L90.78 68.93L107.39 97.07H74.17H40.96L57.56 68.93L74.17 40.78Z" fill="white"/>
<path d="M107.41 99.06C107.41 99.06 107.4 99.06 107.39 99.06H40.9599C40.2399 99.06 39.5799 98.68 39.2299 98.05C38.8699 97.43 38.8799 96.66 39.2399 96.05L72.4499 39.77C72.8099 39.16 73.4599 38.79 74.1699 38.79C74.8799 38.79 75.5299 39.16 75.8899 39.77L108.98 95.84C109.25 96.18 109.4 96.61 109.4 97.07C109.4 98.17 108.51 99.07 107.4 99.07L107.41 99.06ZM44.4599 95.07H103.9L74.1799 44.71L44.4599 95.07Z" fill="black"/>
</g>
<defs>
<clipPath id="clip0_405_1539">
<rect width="109.44" height="117.81" fill="white"/>
</clipPath>
</defs>
</svg>
