<svg width="20" height="20" viewBox="0 0 20 20" fill="none" xmlns="http://www.w3.org/2000/svg">
<path d="M16.6419 8.3335H3.30859V15.0002C3.30859 17.5002 4.14193 18.3335 6.64193 18.3335H13.3086C15.8086 18.3335 16.6419 17.5002 16.6419 15.0002V8.3335Z" stroke="#616161" stroke-width="1.5" stroke-miterlimit="10" stroke-linecap="round" stroke-linejoin="round"/>
<path d="M17.9173 5.83317V6.6665C17.9173 7.58317 17.4757 8.33317 16.2507 8.33317H3.75065C2.47565 8.33317 2.08398 7.58317 2.08398 6.6665V5.83317C2.08398 4.9165 2.47565 4.1665 3.75065 4.1665H16.2507C17.4757 4.1665 17.9173 4.9165 17.9173 5.83317Z" stroke="#616161" stroke-width="1.5" stroke-miterlimit="10" stroke-linecap="round" stroke-linejoin="round"/>
<path d="M9.70096 4.16686H5.10096C4.81763 3.85853 4.82596 3.38353 5.12596 3.08353L6.30929 1.9002C6.61763 1.59186 7.12596 1.59186 7.43429 1.9002L9.70096 4.16686Z" stroke="#616161" stroke-width="1.5" stroke-miterlimit="10" stroke-linecap="round" stroke-linejoin="round"/>
<path d="M14.891 4.16686H10.291L12.5577 1.9002C12.866 1.59186 13.3743 1.59186 13.6827 1.9002L14.866 3.08353C15.166 3.38353 15.1743 3.85853 14.891 4.16686Z" stroke="#616161" stroke-width="1.5" stroke-miterlimit="10" stroke-linecap="round" stroke-linejoin="round"/>
<path d="M7.44922 8.3335V12.6168C7.44922 13.2835 8.18255 13.6752 8.74089 13.3168L9.52422 12.8002C9.80755 12.6168 10.1659 12.6168 10.4409 12.8002L11.1826 13.3002C11.7326 13.6668 12.4742 13.2752 12.4742 12.6085V8.3335H7.44922Z" stroke="#616161" stroke-width="1.5" stroke-miterlimit="10" stroke-linecap="round" stroke-linejoin="round"/>
</svg>
