<svg width="20" height="21" viewBox="0 0 20 21" fill="none" xmlns="http://www.w3.org/2000/svg">
<path d="M14.1665 9.31059H15.8332C17.4998 9.31059 18.3332 8.47725 18.3332 6.81059V5.14392C18.3332 3.47725 17.4998 2.64392 15.8332 2.64392H14.1665C12.4998 2.64392 11.6665 3.47725 11.6665 5.14392V6.81059C11.6665 8.47725 12.4998 9.31059 14.1665 9.31059Z" stroke="#292D32" stroke-width="1.5" stroke-miterlimit="10" stroke-linecap="round" stroke-linejoin="round"/>
<path d="M4.1665 19.3106H5.83317C7.49984 19.3106 8.33317 18.4773 8.33317 16.8106V15.1439C8.33317 13.4773 7.49984 12.6439 5.83317 12.6439H4.1665C2.49984 12.6439 1.6665 13.4773 1.6665 15.1439V16.8106C1.6665 18.4773 2.49984 19.3106 4.1665 19.3106Z" stroke="#292D32" stroke-width="1.5" stroke-miterlimit="10" stroke-linecap="round" stroke-linejoin="round"/>
<path d="M4.99984 9.31059C6.84079 9.31059 8.33317 7.8182 8.33317 5.97725C8.33317 4.1363 6.84079 2.64392 4.99984 2.64392C3.15889 2.64392 1.6665 4.1363 1.6665 5.97725C1.6665 7.8182 3.15889 9.31059 4.99984 9.31059Z" stroke="#292D32" stroke-width="1.5" stroke-miterlimit="10" stroke-linecap="round" stroke-linejoin="round"/>
<path d="M14.9998 19.3106C16.8408 19.3106 18.3332 17.8182 18.3332 15.9773C18.3332 14.1363 16.8408 12.6439 14.9998 12.6439C13.1589 12.6439 11.6665 14.1363 11.6665 15.9773C11.6665 17.8182 13.1589 19.3106 14.9998 19.3106Z" stroke="#292D32" stroke-width="1.5" stroke-miterlimit="10" stroke-linecap="round" stroke-linejoin="round"/>
</svg>
