<svg width="86" height="86" viewBox="0 0 86 86" fill="none" xmlns="http://www.w3.org/2000/svg">
<path d="M78.4168 53.625V32.375C78.4168 14.6667 71.3335 7.58333 53.6252 7.58333H32.3752C14.6668 7.58333 7.5835 14.6667 7.5835 32.375V53.625C7.5835 71.3333 14.6668 78.4167 32.3752 78.4167H53.6252C71.3335 78.4167 78.4168 71.3333 78.4168 53.625Z" stroke="#292D32" stroke-width="1.5" stroke-linecap="round" stroke-linejoin="round"/>
<path d="M30.3207 61.0979C33.3916 61.0979 35.8811 58.6084 35.8811 55.5374C35.8811 52.4665 33.3916 49.977 30.3207 49.977C27.2498 49.977 24.7603 52.4665 24.7603 55.5374C24.7603 58.6084 27.2498 61.0979 30.3207 61.0979Z" stroke="#292D32" stroke-width="1.5" stroke-linecap="round" stroke-linejoin="round"/>
<path d="M56.2811 51.8187V30.0728C56.2811 25.4332 53.3768 24.7959 50.4373 25.6105L39.3166 28.6563C37.2978 29.2229 35.9165 30.8167 35.9165 33.1188V37.0146V39.6354V55.5729" stroke="#292D32" stroke-width="1.5" stroke-linecap="round" stroke-linejoin="round"/>
<path d="M50.7206 57.3792C53.7915 57.3792 56.281 54.8896 56.281 51.8187C56.281 48.7478 53.7915 46.2583 50.7206 46.2583C47.6497 46.2583 45.1602 48.7478 45.1602 51.8187C45.1602 54.8896 47.6497 57.3792 50.7206 57.3792Z" stroke="#292D32" stroke-width="1.5" stroke-linecap="round" stroke-linejoin="round"/>
<path d="M35.8813 39.5999L56.2814 34.0395" stroke="#292D32" stroke-width="1.5" stroke-linecap="round" stroke-linejoin="round"/>
</svg>
