<svg width="21" height="16" viewBox="0 0 21 16" fill="none" xmlns="http://www.w3.org/2000/svg">
<path d="M0.5 16V13.2C0.5 12.6333 0.641667 12.1127 0.925 11.638C1.20833 11.1633 1.6 10.8007 2.1 10.55C3.1 10.05 4.13767 9.66667 5.213 9.4C6.28833 9.13333 7.384 9 8.5 9C8.91667 9 9.33333 9.02933 9.75 9.088C10.1667 9.14667 10.5833 9.21733 11 9.3V10.875C10.25 11.2417 9.646 11.725 9.188 12.325C8.73 12.925 8.50067 13.7083 8.5 14.675V16H0.5ZM10.5 16V14.6C10.5 14.2 10.6043 13.8293 10.813 13.488C11.0217 13.1467 11.3173 12.9007 11.7 12.75C12.3 12.5 12.921 12.3127 13.563 12.188C14.205 12.0633 14.8507 12.0007 15.5 12C16.15 12 16.796 12.0627 17.438 12.188C18.08 12.3133 18.7007 12.5007 19.3 12.75C19.6833 12.9 19.9793 13.146 20.188 13.488C20.3967 13.83 20.5007 14.2007 20.5 14.6V16H10.5ZM15.5 11C14.8 11 14.2083 10.7583 13.725 10.275C13.2417 9.79167 13 9.2 13 8.5C13 7.8 13.2417 7.20833 13.725 6.725C14.2083 6.24167 14.8 6 15.5 6C16.2 6 16.7917 6.24167 17.275 6.725C17.7583 7.20833 18 7.8 18 8.5C18 9.2 17.7583 9.79167 17.275 10.275C16.7917 10.7583 16.2 11 15.5 11ZM8.5 8C7.4 8 6.45833 7.60833 5.675 6.825C4.89167 6.04167 4.5 5.1 4.5 4C4.5 2.9 4.89167 1.95833 5.675 1.175C6.45833 0.391667 7.4 0 8.5 0C9.6 0 10.5417 0.391667 11.325 1.175C12.1083 1.95833 12.5 2.9 12.5 4C12.5 5.1 12.1083 6.04167 11.325 6.825C10.5417 7.60833 9.6 8 8.5 8Z" fill="white"/>
</svg>
