<svg width="89" height="75" viewBox="0 0 89 75" fill="none" xmlns="http://www.w3.org/2000/svg">
<g clip-path="url(#clip0_405_1564)">
<path d="M59.298 1.37323H1.25586V73.6336H59.298V1.37323Z" fill="white"/>
<path d="M59.7749 75H0.772221C0.345302 75 0 74.6224 0 74.1554V0.844548C0 0.377643 0.345302 0 0.772221 0H59.7749C60.2018 0 60.5471 0.377643 60.5471 0.844548V74.1554C60.5471 74.6224 60.2018 75 59.7749 75ZM3.73554 72.2604H56.8179C57.4959 72.2604 58.0421 71.6561 58.0421 70.9214V4.08542C58.0421 3.34386 57.4959 2.7465 56.8179 2.7465H3.73554C3.05749 2.7465 2.51129 3.34386 2.51129 4.08542V70.9214C2.51129 71.663 3.05749 72.2604 3.73554 72.2604Z" fill="#020202"/>
<path d="M48.6247 25.9201H11.9285C11.2379 25.9201 10.6729 25.309 10.6729 24.5468C10.6729 23.7847 11.2316 23.1736 11.9285 23.1736H48.6247C49.3153 23.1736 49.8803 23.7847 49.8803 24.5468C49.8803 25.309 49.3216 25.9201 48.6247 25.9201Z" fill="black"/>
<path d="M48.6247 42.4746H11.9285C11.2379 42.4746 10.6729 41.8635 10.6729 41.1013C10.6729 40.3392 11.2316 39.7281 11.9285 39.7281H48.6247C49.3153 39.7281 49.8803 40.3392 49.8803 41.1013C49.8803 41.8635 49.3216 42.4746 48.6247 42.4746Z" fill="black"/>
<path d="M48.6247 58.7682H11.9285C11.2379 58.7682 10.6729 58.1571 10.6729 57.3949C10.6729 56.6328 11.2316 56.0217 11.9285 56.0217H48.6247C49.3153 56.0217 49.8803 56.6328 49.8803 57.3949C49.8803 58.1571 49.3216 58.7682 48.6247 58.7682Z" fill="black"/>
<path d="M47.6139 37.1326L45.9941 47.3977L46.1323 47.3702L55.3801 45.6262V45.585L51.5692 41.424L47.6453 37.1326H47.6139Z" fill="white"/>
<path d="M45.2222 48.2423L47.0868 36.446H47.8716L48.0913 36.6452L56.0081 45.3035V46.1618L55.4871 46.2991L45.2222 48.2423ZM48.0285 38.5196L46.7603 46.56L54.1121 45.173L48.0285 38.5196Z" fill="black"/>
<path d="M45.9941 47.3977L46.1323 47.3702L48.1538 46.9514L47.3377 46.0587L46.3708 45.0013L45.9941 47.3977Z" fill="#1E1D21"/>
<path d="M47.5825 37.0983L51.5566 41.4378L55.3801 45.6262L69.6693 29.9986L65.8458 25.8102L61.8717 21.4708L47.5825 37.0983Z" fill="#F2ED7C"/>
<path d="M53.9799 46.0313L47.212 38.6295C46.4398 37.7849 46.4398 36.4117 47.212 35.5671L60.4779 21.0588C61.2501 20.2142 62.5057 20.2142 63.2779 21.0588L70.0459 28.4606C70.8181 29.3051 70.8181 30.6784 70.0459 31.5229L56.78 46.0313C56.0078 46.8758 54.7521 46.8758 53.9799 46.0313ZM49.8865 37.6819L54.8463 43.1063C55.1414 43.429 55.6185 43.429 55.9136 43.1063L67.3651 30.5822C67.6601 30.2595 67.6601 29.7377 67.3651 29.415L62.4053 23.9907C62.1102 23.6679 61.633 23.6679 61.338 23.9907L49.8865 36.5147C49.5914 36.8374 49.5914 37.3592 49.8865 37.6819Z" fill="black"/>
<path d="M78.3145 3.48802L77.1656 4.74455L76.136 5.87061L64.1509 18.9783L68.125 23.3246L71.9484 27.5062L83.9335 14.3985L84.9632 13.2724L85.9237 12.2219C85.9237 12.2219 89.9418 8.04035 86.043 3.72148C86.0305 3.70774 86.0179 3.69401 86.0054 3.67341C82.0375 -0.666054 78.3083 3.48802 78.3083 3.48802H78.3145Z" fill="#F2ED7C"/>
<path d="M71.9483 28.8794C71.6155 28.8794 71.2953 28.7352 71.063 28.4812L63.2655 19.9533C63.0332 19.6993 62.9014 19.3491 62.9014 18.9852C62.9014 18.6213 63.0332 18.2711 63.2655 18.017L77.4292 2.51992C77.5045 2.43753 79.4319 0.32959 82.1504 0.32959C83.8518 0.32959 85.4527 1.13294 86.8967 2.70531C86.9155 2.72591 86.9407 2.76024 86.9658 2.78771C88.347 4.33261 89.025 6.03544 88.9999 7.86873C88.956 10.9242 86.8779 13.1214 86.79 13.2107L72.8335 28.4743C72.6012 28.7284 72.281 28.8726 71.9483 28.8726V28.8794ZM66.7311 19.8641L71.1447 24.691C71.5904 25.1785 72.3124 25.1785 72.7582 24.691L85.0446 11.2538C85.0446 11.2538 86.4761 9.70888 86.4949 7.80693C86.5075 6.72893 86.0554 5.6784 85.1576 4.68279C85.1388 4.66219 85.12 4.64159 85.1011 4.61413C84.1406 3.58419 83.1549 3.06922 82.1567 3.06922C80.5055 3.06922 79.2185 4.44247 79.2059 4.4562L66.7311 18.0994C66.2853 18.5869 66.2853 19.3766 66.7311 19.8641Z" fill="black"/>
<path d="M61.8721 21.4708L65.8462 25.8102L69.6696 29.9987L71.1638 28.3645L67.3341 24.1829L63.3663 19.8366L61.8721 21.4708Z" fill="white"/>
<path d="M69.6696 30.9668L60.9868 21.4708L63.3663 18.8685L72.049 28.3645L69.6696 30.9668ZM62.7573 21.4708L69.6696 29.0305L70.2723 28.3645L63.36 20.8048L62.751 21.4708H62.7573Z" fill="black"/>
<path d="M74.736 2.61605L74.7235 2.60232C74.3531 2.19034 73.7441 2.19034 73.3674 2.60232L63.3222 13.5883C62.9518 13.9934 62.9518 14.6594 63.3222 15.0646L63.3348 15.0783C63.7052 15.4834 64.3142 15.4834 64.6909 15.0783L74.736 4.09229C75.1065 3.68718 75.1065 3.02116 74.736 2.61605Z" fill="#1E1D21"/>
</g>
<defs>
<clipPath id="clip0_405_1564">
<rect width="89" height="75" fill="white"/>
</clipPath>
</defs>
</svg>
