<svg width="70" height="70" viewBox="0 0 70 70" fill="none" xmlns="http://www.w3.org/2000/svg">
<g clip-path="url(#clip0_576_12721)">
<path d="M35 0C44.2826 0 53.185 3.68749 59.7487 10.2513C66.3125 16.815 70 25.7174 70 35C70 44.2826 66.3125 53.185 59.7487 59.7487C53.185 66.3125 44.2826 70 35 70C25.7174 70 16.815 66.3125 10.2513 59.7487C3.68749 53.185 0 44.2826 0 35C0 25.7174 3.68749 16.815 10.2513 10.2513C16.815 3.68749 25.7174 0 35 0ZM6.5625 35C6.5625 42.5421 9.55859 49.7753 14.8917 55.1083C20.2247 60.4414 27.4579 63.4375 35 63.4375C42.5421 63.4375 49.7753 60.4414 55.1083 55.1083C60.4414 49.7753 63.4375 42.5421 63.4375 35C63.4375 27.4579 60.4414 20.2247 55.1083 14.8917C49.7753 9.55859 42.5421 6.5625 35 6.5625C27.4579 6.5625 20.2247 9.55859 14.8917 14.8917C9.55859 20.2247 6.5625 27.4579 6.5625 35ZM27.9081 22.8681L46.5631 34.0637C46.7243 34.1611 46.8577 34.2985 46.9502 34.4625C47.0428 34.6265 47.0914 34.8117 47.0914 35C47.0914 35.1883 47.0428 35.3735 46.9502 35.5375C46.8577 35.7015 46.7243 35.8389 46.5631 35.9362L27.9081 47.1319C27.7422 47.2318 27.5528 47.2859 27.3591 47.2886C27.1655 47.2914 26.9746 47.2426 26.806 47.1474C26.6373 47.0522 26.497 46.9139 26.3993 46.7467C26.3016 46.5794 26.2501 46.3893 26.25 46.1956V23.8088C26.2493 23.6147 26.3003 23.424 26.3977 23.2562C26.495 23.0883 26.6353 22.9494 26.8041 22.8537C26.9728 22.7579 27.164 22.7088 27.3581 22.7114C27.5521 22.7139 27.7419 22.768 27.9081 22.8681Z" fill="#F8F8F8"/>
</g>
<defs>
<clipPath id="clip0_576_12721">
<rect width="70" height="70" fill="white"/>
</clipPath>
</defs>
</svg>
