<svg width="19" height="18" viewBox="0 0 19 18" fill="none" xmlns="http://www.w3.org/2000/svg">
<path d="M9.5 1.5C7.535 1.5 5.9375 3.0975 5.9375 5.0625C5.9375 6.99 7.445 8.55 9.41 8.6175C9.47 8.61 9.53 8.61 9.575 8.6175C9.59 8.6175 9.5975 8.6175 9.6125 8.6175C9.62 8.6175 9.62 8.6175 9.6275 8.6175C11.5475 8.55 13.055 6.99 13.0625 5.0625C13.0625 3.0975 11.465 1.5 9.5 1.5Z" fill="white"/>
<path d="M13.31 10.6125C11.2175 9.21753 7.80497 9.21753 5.69747 10.6125C4.74497 11.25 4.21997 12.1125 4.21997 13.035C4.21997 13.9575 4.74497 14.8125 5.68997 15.4425C6.73997 16.1475 8.11997 16.5 9.49997 16.5C10.88 16.5 12.26 16.1475 13.31 15.4425C14.255 14.805 14.78 13.95 14.78 13.02C14.7725 12.0975 14.255 11.2425 13.31 10.6125Z" fill="white"/>
</svg>
