<svg width="102" height="102" viewBox="0 0 102 102" fill="none" xmlns="http://www.w3.org/2000/svg">
<g clip-path="url(#clip0_405_1526)" filter="url(#filter0_d_405_1526)">
<path d="M78.8594 29.4534C76.5229 32.0269 76.051 35.8788 78.2791 38.5108C78.9135 39.2628 79.6795 39.8059 80.5073 40.1485C81.0953 40.3908 81.2577 41.1678 80.9018 41.6942L74.6429 47.8523C74.581 47.9108 74.5191 47.9526 74.4495 47.9943C74.3567 48.0528 74.2484 48.0946 74.1478 48.1113C73.9311 48.0862 73.7223 47.9776 73.5675 47.7938L72.9873 47.1254L67.7496 41.0592C67.6567 40.9506 67.5484 40.8838 67.4324 40.8253L67.3395 40.7166C66.8289 40.1067 67.1539 39.1542 67.9121 39.0121C68.9565 38.8116 69.97 38.3019 70.8056 37.4747C74.1014 34.2327 73.1497 27.8324 67.6026 26.4286C67.3241 26.3618 67.0223 26.3451 66.7361 26.3869C63.6879 26.8464 61.862 28.8601 61.2818 31.1913C61.0884 31.9767 60.1909 32.2525 59.688 31.6509L56.0054 27.2893L53.7076 24.557C53.5761 24.3982 53.4987 24.2144 53.4678 24.0139C53.4832 23.8217 53.5684 23.6379 53.6844 23.4708C53.7076 23.4374 53.7231 23.3956 53.7618 23.3622L59.9743 17.0955C60.0826 16.9869 60.16 16.8532 60.2064 16.7111C60.5158 16.1931 60.3456 15.4411 59.7731 15.2155C58.9453 14.8729 58.1794 14.3298 57.545 13.5778C55.4174 11.0544 55.5489 7.16074 57.8235 4.81283C60.1754 2.55683 63.7807 2.72394 65.9392 5.22225C66.5814 5.96589 67.0223 6.83487 67.2699 7.75398C67.4401 8.38065 68.1132 8.63131 68.6161 8.33887C68.7476 8.29709 68.8791 8.23025 68.9874 8.11327L75.2696 1.93016C75.4475 1.75469 75.6719 1.67114 75.8963 1.66278C76.0742 1.70456 76.2444 1.80483 76.3759 1.96358L82.4337 8.97389C82.9443 9.56714 82.6271 10.5113 81.8844 10.6534C79.6949 11.0878 77.6757 12.8926 77.0103 16.1346C76.9484 16.4354 76.9407 16.7613 76.9794 17.0704C77.8227 23.1616 83.6561 24.699 86.9132 21.4153C87.7488 20.5714 88.2981 19.5353 88.5688 18.424C88.7623 17.6219 89.6674 17.3462 90.1858 17.9478L90.2786 18.0564C90.3173 18.1817 90.3792 18.307 90.4643 18.4157L96.2049 25.2254C96.3596 25.4093 96.437 25.6432 96.4447 25.8772C96.406 26.0694 96.3132 26.2448 96.1662 26.3869L89.9769 32.6285C89.4663 32.9627 88.7623 32.7287 88.5843 32.077C88.3367 31.1579 87.8958 30.2889 87.2536 29.5453C85.0023 26.9383 81.1804 26.8715 78.8439 29.4366L78.8594 29.4534Z" fill="#F2ED7C"/>
<path d="M74.148 49.774C74.0861 49.774 74.0242 49.774 73.9623 49.7573C73.3744 49.6821 72.8328 49.3813 72.4382 48.9218L66.7054 42.2875C66.5507 42.1955 66.4037 42.0786 66.2876 41.9365L66.1948 41.8279C65.5836 41.1093 65.3902 40.0816 65.6842 39.1625C65.9781 38.2267 66.7363 37.5331 67.6493 37.3577C68.4384 37.2073 69.1734 36.8146 69.7691 36.2297C70.9451 35.0683 71.4247 33.3219 71.0302 31.6508C70.5969 29.8544 69.2198 28.5342 67.2547 28.0412C67.1618 28.0162 67.0458 28.0078 66.9452 28.0245C64.7867 28.3504 63.2626 29.6539 62.7752 31.6091C62.4812 32.7955 61.4832 33.6311 60.3614 33.6311C59.6651 33.6311 59.0229 33.3219 58.551 32.7621L52.5706 25.6683C52.2379 25.2755 52.0213 24.7826 51.9439 24.2478C51.9284 24.1141 51.9207 23.9721 51.9362 23.8384C51.9826 23.3538 52.1528 22.8859 52.4468 22.4848C52.4932 22.4012 52.586 22.2675 52.7176 22.1339L58.4272 16.3769C57.669 15.9507 56.9959 15.3909 56.4157 14.6974C53.7001 11.4805 53.8626 6.60924 56.7716 3.60124C58.1642 2.26435 59.8972 1.55413 61.6998 1.55413C63.7345 1.55413 65.6919 2.47324 67.0767 4.07751C67.657 4.74595 68.1289 5.53137 68.4616 6.37528L74.2409 0.693505C74.6818 0.259016 75.2621 0.00834929 75.8656 -0.00836182C75.9971 -0.00836182 76.1286 -6.26221e-06 76.2524 0.033416C76.7321 0.150394 77.1653 0.426127 77.5057 0.810483L83.5712 7.82915C84.1824 8.53937 84.3913 9.55039 84.1128 10.4695C83.8265 11.4053 83.0838 12.1072 82.1709 12.291C80.3296 12.6587 78.9989 14.1877 78.527 16.4939C78.5037 16.6025 78.5037 16.7195 78.5192 16.8281C78.9911 20.2288 81.2038 21.432 82.96 21.432C84.0432 21.432 85.0799 20.9891 85.8767 20.187C86.4647 19.5938 86.8825 18.8334 87.0914 17.9895C87.3854 16.7863 88.3834 15.9424 89.5284 15.9424C90.217 15.9424 90.8591 16.2432 91.3388 16.7947L91.4316 16.9033C91.5477 17.0453 91.6483 17.2041 91.7179 17.3712L97.3734 24.0807C97.7602 24.5403 97.9923 25.1502 98.0155 25.7852C98.0155 25.9356 98.0078 26.0944 97.9768 26.2448C97.8608 26.7628 97.6132 27.2224 97.2573 27.59L91.0603 33.8316C90.9829 33.9068 90.8978 33.9737 90.8127 34.0322C90.4181 34.2912 89.9694 34.4332 89.5052 34.4332C88.3911 34.4332 87.4395 33.6645 87.1378 32.5282C86.9521 31.8347 86.6272 31.208 86.163 30.6732C85.3429 29.7291 84.2366 29.211 83.0374 29.211C81.8382 29.211 80.8015 29.704 79.9814 30.598C79.9428 30.6398 79.9041 30.6732 79.8654 30.715C78.9602 31.5339 78.4109 32.6786 78.3335 33.9486C78.2562 35.2187 78.643 36.4302 79.4399 37.366C79.8963 37.9091 80.4456 38.3102 81.0723 38.5609C81.7918 38.8533 82.3256 39.48 82.55 40.2738C82.7744 41.0843 82.6351 41.9699 82.1786 42.6467C82.1167 42.7387 82.0471 42.8222 81.9697 42.8974L75.7108 49.0555C75.5097 49.2476 75.324 49.3646 75.2002 49.4398C74.9294 49.5986 74.6586 49.6905 74.3879 49.7323C74.3182 49.7406 74.2486 49.749 74.1712 49.749L74.148 49.774ZM69.2585 40.3573L74.179 46.0558L79.053 41.2597C78.3413 40.8419 77.6914 40.2905 77.1421 39.6387C75.7805 38.0261 75.0996 35.9289 75.2389 33.7481C75.3781 31.5923 76.2911 29.6371 77.8152 28.2334C79.2078 26.7294 81.0491 25.9022 83.0219 25.9022C84.9948 25.9022 87.014 26.8213 88.3989 28.4256C88.9637 29.0773 89.4124 29.8126 89.7373 30.6147L94.5572 25.7602L89.6986 20.0032C89.2963 21.0059 88.7084 21.9083 87.9656 22.6603C86.5963 24.0389 84.8168 24.7993 82.9446 24.7993C79.8344 24.7993 76.1595 22.4681 75.4478 17.3461C75.3781 16.8281 75.3936 16.2933 75.5019 15.792C76.1595 12.5835 78.0318 10.2272 80.5926 9.31644L75.7572 3.71822L70.0244 9.35822C69.7923 9.59217 69.506 9.77599 69.1888 9.89297C68.8639 10.0517 68.5158 10.1353 68.1521 10.1353C67.0381 10.1353 66.0787 9.36657 65.777 8.22186C65.5913 7.52835 65.2664 6.90168 64.8022 6.37528C63.9821 5.43111 62.8758 4.91306 61.6766 4.91306C60.6321 4.91306 59.6264 5.32248 58.845 6.07448C57.1971 7.77902 57.1042 10.6032 58.6825 12.4748C59.139 13.0096 59.6883 13.419 60.3149 13.678C61.0035 13.9538 61.5373 14.5554 61.7694 15.3157C61.9938 16.0427 61.9242 16.8281 61.576 17.4882C61.4367 17.8224 61.2433 18.1065 61.0112 18.3404L55.348 24.0473L60.1215 29.704C61.1737 27.0219 63.4947 25.2003 66.5197 24.7491C67.0071 24.674 67.4868 24.7074 67.951 24.8243C71.0224 25.6014 73.2893 27.8491 74.0088 30.8487C74.6973 33.7147 73.8695 36.7394 71.8425 38.728C71.0921 39.4716 70.2101 40.0315 69.2507 40.3824L69.2585 40.3573Z" fill="black"/>
<path d="M15.156 59.4331L15.1096 50.2838C15.1947 49.7991 15.597 49.4482 16.0303 49.4482C16.1618 49.4482 16.2933 49.4816 16.4249 49.5485C17.2063 49.9663 18.0805 50.2086 19.0089 50.2086H19.0476C23.5039 50.1751 26.761 44.744 23.5193 39.6973C23.3569 39.4382 23.1402 39.2127 22.9004 39.0372C21.5852 38.0679 20.2545 37.6502 19.0166 37.6502C18.065 37.6502 17.1676 37.9008 16.3784 38.3353C16.2392 38.4105 16.0999 38.4439 15.9607 38.4439C15.5274 38.4439 15.1328 38.1097 15.04 37.6251L14.9858 27.9995C14.9858 27.4313 15.4036 26.9718 15.9297 26.9634L24.4555 26.9133C25.1518 26.9133 25.6314 26.1111 25.3065 25.4427C24.8887 24.5821 24.6411 23.6045 24.6334 22.56C24.6179 19.0758 27.2252 16.2432 30.4514 16.2432C31.6892 16.2432 33.0199 16.661 34.3197 17.6135C34.5518 17.789 34.7684 18.0146 34.9309 18.2653C36.5556 20.7803 36.571 23.3705 35.6349 25.3591C35.3177 26.0359 35.7819 26.8381 36.4859 26.8381L45.0194 26.7796C45.5455 26.7796 45.971 27.2308 45.971 27.799L46.0252 36.9817C46.0252 37.5666 46.4739 38.0011 46.9691 38.0011C47.1083 38.0011 47.2553 37.9677 47.3868 37.8925C48.176 37.458 49.0734 37.2073 50.025 37.2073C51.2629 37.2073 52.5936 37.6251 53.9088 38.5943C54.1486 38.7698 54.3653 38.9954 54.5277 39.2544C57.7694 44.3012 54.5123 49.7407 50.056 49.7657H50.025C49.0966 49.7657 48.2146 49.5318 47.4332 49.1056C47.3017 49.0304 47.1702 49.0054 47.0309 49.0054C46.5358 49.0054 46.0871 49.4566 46.0871 50.0498L46.1412 59.2242C46.1412 59.4498 46.0639 59.642 45.9478 59.8174L15.1406 59.4247L15.156 59.4331Z" fill="#F2ED7C"/>
<path d="M45.9636 61.4885C45.6542 61.4885 45.337 61.3882 45.0662 61.1794C44.424 60.6864 44.2384 59.7506 44.6097 59.0236L44.5633 50.0665C44.5633 49.3395 44.8186 48.6627 45.2905 48.1447C46.0255 47.3426 47.2247 47.1253 48.1454 47.635C48.7256 47.9525 49.3677 48.1113 50.0331 48.1113C51.6501 48.1029 53.0968 47.142 53.8318 45.6213C54.6209 43.9753 54.4198 42.0034 53.2747 40.2153C53.2206 40.1234 53.1432 40.0398 53.0504 39.9813C51.4025 38.7614 49.5998 38.5525 48.1067 39.3881C47.7431 39.5802 47.364 39.6805 46.9771 39.6805C45.6155 39.6805 44.4937 38.4773 44.4859 36.9984L44.4395 28.459L36.5017 28.5091C35.612 28.5091 34.8152 28.0245 34.3587 27.2224C33.9022 26.4202 33.8635 25.4426 34.2581 24.6071C35.0318 22.961 34.8152 20.9975 33.6701 19.2261C33.616 19.1426 33.5386 19.059 33.4535 18.9922C32.4787 18.2819 31.4729 17.9143 30.4672 17.9143C29.3221 17.9143 28.2468 18.3989 27.4344 19.2762C26.6298 20.1536 26.1888 21.315 26.1888 22.5516C26.1888 23.2953 26.359 24.0138 26.684 24.6656C27.0863 25.4928 27.0553 26.462 26.6143 27.2642C26.1579 28.083 25.361 28.576 24.479 28.5843L16.5412 28.6345L16.5877 36.4302C18.8622 35.5612 21.5159 35.9874 23.7827 37.6585C24.1773 37.9509 24.5254 38.3269 24.7962 38.7447C26.5911 41.5438 26.8774 44.8442 25.5621 47.5849C24.3011 50.2085 21.8099 51.8546 19.0711 51.8713C18.2278 51.8713 17.431 51.7292 16.6728 51.4535L16.7192 59.408C16.7192 60.3271 16.0384 61.0791 15.1873 61.0874H15.1796C14.3286 61.0874 13.64 60.3438 13.6323 59.433L13.5859 50.2837C13.5859 50.1751 13.5936 50.0581 13.6168 49.9495C13.8489 48.6878 14.8701 47.7687 16.0538 47.7687C16.4329 47.7687 16.7966 47.8606 17.137 48.0444C17.7404 48.3703 18.3748 48.529 19.0402 48.529C20.6571 48.5207 22.1039 47.5598 22.8389 46.0391C23.628 44.393 23.4268 42.4211 22.2818 40.633C22.2277 40.5495 22.1426 40.4576 22.0652 40.3991C20.4096 39.1792 18.6224 38.9703 17.1138 39.8058C16.7579 39.998 16.3788 40.0983 15.9919 40.0983C14.8237 40.0983 13.8025 39.1959 13.5626 37.9509C13.5394 37.8423 13.5317 37.7337 13.5317 37.625L13.4775 27.9994C13.4775 27.2809 13.7328 26.6041 14.197 26.086C14.669 25.5763 15.2879 25.2922 15.9533 25.2839L23.5738 25.2338C23.2876 24.3815 23.1328 23.4707 23.1251 22.5516C23.1174 20.421 23.8756 18.4073 25.2682 16.8949C26.6607 15.3826 28.5175 14.547 30.4904 14.547H30.4981C32.1073 14.547 33.7398 15.1235 35.2252 16.2014C35.6275 16.4938 35.9756 16.8698 36.2387 17.2793C37.8556 19.7776 38.2734 22.585 37.4301 25.1251L45.0507 25.075C46.4356 25.075 47.5496 26.2782 47.5574 27.7571L47.6038 35.9623C49.8706 35.085 52.5475 35.5027 54.8221 37.1822C55.2166 37.4746 55.5725 37.8506 55.8356 38.2768C57.6305 41.0675 57.9167 44.3763 56.5938 47.117C55.3327 49.749 52.8415 51.3866 50.1027 51.4034C49.2517 51.4034 48.4471 51.2613 47.6812 50.9772L47.7276 59.1824C47.7276 59.7338 47.5651 60.277 47.2479 60.7532C46.9462 61.2044 46.4742 61.4467 45.9946 61.4467L45.9636 61.4885Z" fill="black"/>
<path d="M45.4375 59.3161C45.5768 59.2409 45.6387 59.0654 45.7779 58.9902C45.6851 59.1239 45.5768 59.2409 45.4375 59.3161Z" fill="#F2ED7C"/>
<path d="M45.4373 60.9789C44.9963 60.9789 44.563 60.7783 44.2613 60.394C43.7971 59.8091 43.7662 58.9568 44.1839 58.3385C44.4238 57.9792 44.7178 57.7035 45.0582 57.5029C45.6926 57.1437 46.4662 57.3024 46.9382 57.8789C47.4101 58.4555 47.4488 59.3161 47.0387 59.9428C46.7912 60.3188 46.4894 60.6029 46.1336 60.795C45.9092 60.912 45.6771 60.9705 45.4373 60.9705V60.9789ZM46.2419 59.9344L46.4972 60.4608C46.6132 60.394 46.6751 60.3188 46.6906 60.2853L46.2419 59.9344ZM44.7487 57.8205C44.6094 57.8957 44.5398 57.9876 44.5243 58.021L45.0195 58.397L44.7487 57.8205Z" fill="black"/>
<path d="M45.012 91.3262C45.012 91.6187 45.0661 91.886 45.1512 92.1534L16.4251 92.3372C15.8991 92.3372 15.4735 91.886 15.4658 91.3179L15.4116 82.11C15.4116 81.358 14.6689 80.84 14.05 81.1909C13.2531 81.6421 12.3479 81.9095 11.3809 81.9179C6.92457 81.9429 3.60556 76.5452 6.80078 71.4567C6.96325 71.1977 7.17214 70.9721 7.40424 70.7966C9.73296 69.042 12.1313 69.0252 13.9726 70.0363C14.5993 70.3788 15.342 69.8775 15.3343 69.1088L15.2879 60.2603C15.5741 60.3856 15.8836 60.4524 16.2163 60.4524L25.067 60.394C25.9721 60.394 26.8 59.8508 27.2332 58.9902C27.6742 58.1212 27.6355 57.0517 27.1326 56.2078C26.6994 55.4725 26.4673 54.6286 26.4595 53.7596C26.4595 52.523 26.8928 51.3616 27.7051 50.4759C28.5098 49.5986 29.5851 49.114 30.7379 49.114C31.7514 49.114 32.7649 49.4816 33.7475 50.2002C33.8248 50.2587 33.9099 50.3422 33.9641 50.4341C35.2097 52.3726 35.3567 54.4699 34.3586 56.1744C33.8635 57.0183 33.8326 58.0795 34.2735 58.9401C34.7068 59.784 35.5269 60.3104 36.4398 60.3104L44.8418 60.2519L45.012 91.3095V91.3262Z" fill="#F2ED7C"/>
<path d="M16.4248 94C15.0554 94 13.9413 92.8052 13.9258 91.3263L13.8794 83.096C13.0826 83.4135 12.2393 83.5723 11.396 83.5807H11.3496C8.62626 83.5807 6.13507 81.968 4.85079 79.3694C3.50462 76.6455 3.75219 73.3284 5.52387 70.5126C5.78692 70.0864 6.13507 69.7104 6.5219 69.418C8.83515 67.6717 11.4347 67.2205 13.7866 68.1312L13.7402 60.2686C13.7402 59.7172 13.9877 59.1908 14.4133 58.8816C14.8388 58.5725 15.3803 58.5056 15.8523 58.7062C15.9683 58.7563 16.0921 58.7814 16.2082 58.7814L25.0511 58.7229C25.3915 58.7229 25.7087 58.5223 25.8635 58.1965C26.0337 57.8539 26.0182 57.4445 25.817 57.1102C25.2213 56.1159 24.9041 54.9629 24.8964 53.768C24.8886 52.0802 25.4844 50.4926 26.5907 49.2978C27.6893 48.103 29.1593 47.4429 30.7143 47.4429C32.045 47.4429 33.3448 47.9024 34.5904 48.8215C34.8302 48.997 35.0391 49.2226 35.2016 49.4816C36.7953 51.9632 36.9578 54.7958 35.6348 57.0685C35.4414 57.3943 35.4259 57.8121 35.5961 58.138C35.7586 58.4471 36.0681 58.6477 36.4162 58.6477L44.8105 58.5892C45.6305 58.5975 46.3578 59.3245 46.3655 60.2436C46.3655 61.1627 45.6847 61.9147 44.8337 61.923L36.4317 61.9815C34.954 61.9815 33.6001 61.1293 32.9038 59.7506C32.192 58.3552 32.2384 56.6423 33.0353 55.2887C33.8863 53.8349 33.2597 52.3392 32.7568 51.512C31.3178 50.5094 29.7705 50.5929 28.7879 51.6624C28.2696 52.2223 27.991 52.9659 27.9988 53.7597C27.9988 54.3195 28.1535 54.8542 28.4243 55.3222C29.2289 56.6758 29.2908 58.3886 28.5868 59.8007C27.8905 61.1878 26.5443 62.0651 25.0743 62.0735L16.8426 62.1236L16.8812 69.1005C16.8812 70.053 16.4403 70.9136 15.6975 71.415C14.9548 71.9079 14.0496 71.9497 13.276 71.5236C11.7519 70.688 9.94149 70.922 8.29359 72.167C8.20848 72.2255 8.13885 72.309 8.0847 72.3926C6.95515 74.1974 6.76947 76.1693 7.58182 77.807C8.33227 79.3193 9.77128 80.2551 11.3573 80.2551H11.3805C12.0691 80.2551 12.7267 80.0713 13.3379 79.7204C14.0961 79.2859 14.9935 79.311 15.744 79.7956C16.5021 80.2886 16.9586 81.1492 16.9663 82.1017L17.0128 90.6745L43.6809 90.5074C43.944 90.0144 44.4391 89.6802 45.0116 89.6718H45.0193C45.8704 89.6718 46.5589 90.4155 46.5667 91.3346C46.5667 91.4098 46.5899 91.5101 46.6286 91.6438C46.7833 92.1535 46.7059 92.7049 46.4197 93.1394C46.1334 93.5739 45.6692 93.8329 45.1741 93.8329L16.448 94.0167H16.4325L16.4248 94Z" fill="black"/>
<path d="M44.4086 81.0739C44.2694 81.0739 44.1301 81.1074 43.9909 81.1826C43.194 81.6421 42.2888 81.9011 41.3217 81.9095H41.2908C36.8499 81.9095 33.5619 76.5285 36.7416 71.4483C36.9041 71.1893 37.113 70.9637 37.3451 70.7882C38.6758 69.7856 40.0297 69.3511 41.283 69.3511C42.2269 69.3511 43.1244 69.5934 43.9135 70.0279C44.0527 70.1031 44.192 70.1365 44.3313 70.1365C44.8264 70.1365 45.2829 69.6937 45.2751 69.1004L45.221 59.9845C45.221 59.9845 45.2365 59.9761 45.2442 59.9678C45.2442 59.9511 45.2364 59.9344 45.2364 59.9177C45.2364 59.6837 45.3216 59.4832 45.4376 59.3077C45.5769 59.2325 45.6852 59.1155 45.778 58.9818C45.9173 58.9066 46.0643 58.8482 46.2267 58.8482C46.2577 58.8482 46.2809 58.8649 46.3118 58.8649C46.3118 58.8649 46.3196 58.8565 46.3273 58.8482L54.6751 58.798C55.3714 58.798 55.8356 57.9959 55.5184 57.3191C54.59 55.3555 54.5823 52.7904 56.1683 50.2754C56.3308 50.0163 56.5397 49.7907 56.7795 49.6069C58.0947 48.621 59.4409 48.1865 60.6942 48.1865C63.8895 48.1865 66.489 50.9772 66.5122 54.4281C66.5122 55.4474 66.2955 56.4083 65.901 57.2606C65.5915 57.929 66.0712 58.7061 66.7675 58.7061L75.2623 58.6476C75.7884 58.6476 76.2139 59.1072 76.2139 59.667L76.2681 69.2592C76.2681 69.8608 75.8271 70.2618 75.3397 70.2618C75.1617 70.2618 74.976 70.2117 74.8058 70.0947C73.9084 69.4848 72.8485 69.1255 71.7189 69.1255C70.4656 69.1255 69.1117 69.56 67.7887 70.5543C67.5489 70.7298 67.34 70.9637 67.1775 71.2227C63.9823 76.3029 67.2781 81.6922 71.7189 81.6922H71.7576C72.9026 81.6922 73.9625 81.3246 74.8523 80.6979C75.0225 80.581 75.2081 80.5225 75.3938 80.5225C75.889 80.5225 76.3377 80.9319 76.3454 81.5335L76.3996 91.0922C76.3996 91.6604 75.9818 92.12 75.4557 92.1283L66.9841 92.1868C66.3961 92.0615 66.0248 91.368 66.3033 90.7664C66.6978 89.9141 66.9222 88.9532 66.9145 87.9338C66.899 84.4746 64.2918 81.6922 61.0965 81.6922C59.8432 81.6922 58.497 82.1184 57.1818 83.1127C56.942 83.2882 56.7331 83.5221 56.5706 83.7811C54.9846 86.2962 54.9846 88.8613 55.9207 90.8249C56.207 91.4348 55.8588 92.145 55.2708 92.2704L46.3583 92.3289C45.8322 92.3289 45.4067 91.8777 45.4067 91.3095L45.3525 82.1017C45.3525 81.5168 44.896 81.0739 44.4086 81.0739Z" fill="#F2ED7C"/>
<path d="M46.358 94C44.9886 94 43.8668 92.7968 43.8591 91.3179L43.8126 83.0877C43.0158 83.4052 42.1725 83.5639 41.3292 83.5723C38.5595 83.5723 36.0605 81.9513 34.784 79.3444C33.4456 76.6205 33.7009 73.32 35.4648 70.5042C35.7356 70.0781 36.076 69.7021 36.4628 69.4096C38.7297 67.6967 41.3988 67.2372 43.7275 68.1229L43.6811 59.9929C43.6811 59.901 43.6811 59.8007 43.7043 59.7088C43.743 59.2242 43.9055 58.7479 44.184 58.3301C44.2923 58.163 44.4316 58.021 44.594 57.9124C44.7256 57.7453 44.8803 57.6032 45.066 57.5029C45.4605 57.2857 45.8551 57.1771 46.2729 57.1854C46.2884 57.1854 46.3038 57.1854 46.3193 57.1854L53.7619 57.1353C52.9264 54.6286 53.3132 51.8379 54.8915 49.3396C55.1623 48.9134 55.5104 48.5374 55.8973 48.245C57.3982 47.1254 59.0538 46.5321 60.7017 46.5321C64.7325 46.5321 68.036 50.0749 68.0592 54.4365C68.0592 55.3389 67.9277 56.2162 67.6647 57.0601L75.262 57.01C76.6391 57.01 77.761 58.2132 77.7687 59.6838L77.8228 69.2759C77.8228 69.9945 77.5753 70.6629 77.1111 71.1643C76.3142 72.0333 74.9603 72.192 73.9932 71.5319C73.3124 71.0724 72.531 70.8217 71.7264 70.8217C70.6974 70.8217 69.6762 71.1977 68.6782 71.9497C68.5931 72.0166 68.5157 72.0917 68.4615 72.1837C67.332 73.9801 67.1463 75.952 67.9509 77.5897C68.6936 79.1021 70.1404 80.0462 71.7264 80.0462C72.5619 80.0462 73.3433 79.7872 74.0242 79.3193C74.4342 79.0352 74.9139 78.8848 75.4013 78.8848C76.7939 78.8848 77.8847 80.0546 77.8925 81.5502L77.9466 91.109C77.9466 91.8276 77.6913 92.5044 77.2271 93.0224C76.7552 93.5321 76.1285 93.8162 75.4632 93.8246L66.9993 93.883C66.8987 93.883 66.7904 93.8747 66.6898 93.8496C65.9239 93.6825 65.2663 93.1394 64.9259 92.379C64.5855 91.6354 64.5932 90.7831 64.9259 90.0395C65.2276 89.3961 65.3746 88.6942 65.3746 87.9673C65.3591 85.4356 63.4482 83.3801 61.104 83.3801C60.0828 83.3801 59.0615 83.7561 58.0635 84.4997C57.9784 84.5582 57.901 84.6502 57.8469 84.7337C56.315 87.1652 56.8411 89.1287 57.2898 90.0813C57.6457 90.8249 57.6535 91.6855 57.3208 92.4459C56.9881 93.1979 56.3305 93.7577 55.58 93.9248C55.4795 93.9499 55.3789 93.9582 55.2783 93.9582L46.3657 94.0167H46.358V94ZM44.4084 79.4029C45.77 79.4029 46.8918 80.6061 46.8996 82.0933L46.946 90.6578L54.1642 90.6077C53.3364 88.101 53.731 85.327 55.3015 82.837C55.5723 82.4109 55.9205 82.0265 56.315 81.7424C57.8082 80.6228 59.4716 80.0295 61.1117 80.0295C65.1425 80.0295 68.4461 83.5723 68.4693 87.9339C68.4693 88.8112 68.3377 89.6969 68.0824 90.5241L74.8597 90.4823L74.8133 82.6448C73.8617 83.1211 72.8327 83.3717 71.7728 83.3801C68.9954 83.3801 66.5042 81.7591 65.2199 79.1522C63.8814 76.4283 64.1368 73.1195 65.9084 70.312C66.1792 69.8859 66.5274 69.5015 66.9219 69.2091C69.3667 67.3709 72.3066 67.0032 74.7282 68.1813L74.6895 60.3438L66.7827 60.394C65.893 60.394 65.0961 59.9093 64.6319 59.1072C64.1832 58.3134 64.1445 57.3526 64.5236 56.5337C64.8253 55.8903 64.9723 55.1885 64.9723 54.4615C64.9568 51.9382 63.0382 49.8743 60.7017 49.8743C59.6805 49.8743 58.6515 50.2503 57.6612 50.994C57.5838 51.0525 57.5065 51.1444 57.4446 51.2363C55.9127 53.6677 56.4388 55.6229 56.8875 56.5755C57.2821 57.411 57.2512 58.3803 56.8024 59.1824C56.346 59.9929 55.5568 60.4775 54.6826 60.4775L46.7758 60.5277L46.8222 69.1005C46.8222 69.8274 46.5669 70.5042 46.0949 71.0139C45.3522 71.8244 44.1376 72.0333 43.2014 71.5152C41.7005 70.688 39.8824 70.9053 38.2191 72.1586C38.1417 72.2171 38.0643 72.3006 38.0024 72.3925C36.8806 74.1806 36.6949 76.1525 37.4996 77.7902C38.2423 79.3026 39.689 80.2468 41.275 80.2468C41.9945 80.2468 42.6521 80.063 43.2556 79.7204C43.6038 79.5198 43.9983 79.4112 44.3929 79.4112L44.4084 79.4029Z" fill="black"/>
</g>
<defs>
<filter id="filter0_d_405_1526" x="0" y="0" width="102" height="102" filterUnits="userSpaceOnUse" color-interpolation-filters="sRGB">
<feFlood flood-opacity="0" result="BackgroundImageFix"/>
<feColorMatrix in="SourceAlpha" type="matrix" values="0 0 0 0 0 0 0 0 0 0 0 0 0 0 0 0 0 0 127 0" result="hardAlpha"/>
<feOffset dy="4"/>
<feGaussianBlur stdDeviation="2"/>
<feComposite in2="hardAlpha" operator="out"/>
<feColorMatrix type="matrix" values="0 0 0 0 0 0 0 0 0 0 0 0 0 0 0 0 0 0 0.25 0"/>
<feBlend mode="normal" in2="BackgroundImageFix" result="effect1_dropShadow_405_1526"/>
<feBlend mode="normal" in="SourceGraphic" in2="effect1_dropShadow_405_1526" result="shape"/>
</filter>
<clipPath id="clip0_405_1526">
<rect width="94" height="94" fill="white" transform="translate(4)"/>
</clipPath>
</defs>
</svg>
