<svg width="20" height="20" viewBox="0 0 20 20" fill="none" xmlns="http://www.w3.org/2000/svg">
<path d="M11.1913 12.5002H3.6663C2.14963 12.5002 1.18296 10.8752 1.91629 9.54188L3.85796 6.00853L5.67463 2.7002C6.43296 1.3252 8.41629 1.3252 9.17463 2.7002L10.9996 6.00853L11.8746 7.6002L12.9413 9.54188C13.6746 10.8752 12.708 12.5002 11.1913 12.5002Z" stroke="#616161" stroke-width="1.5" stroke-linecap="round" stroke-linejoin="round"/>
<path d="M18.3333 12.9167C18.3333 15.9083 15.9083 18.3333 12.9167 18.3333C9.925 18.3333 7.5 15.9083 7.5 12.9167C7.5 12.775 7.50833 12.6417 7.51667 12.5H11.1917C12.7083 12.5 13.675 10.875 12.9417 9.54168L11.875 7.6C12.2083 7.53333 12.5583 7.5 12.9167 7.5C15.9083 7.5 18.3333 9.925 18.3333 12.9167Z" stroke="#616161" stroke-width="1.5" stroke-linecap="round" stroke-linejoin="round"/>
</svg>
