<svg width="86" height="86" viewBox="0 0 86 86" fill="none" xmlns="http://www.w3.org/2000/svg">
<path d="M35.9168 16.4375V64.25C35.9168 68.075 34.3584 71.5812 31.8793 74.1312L31.7377 74.2729C31.4189 74.5917 31.0648 74.9104 30.746 75.1583C29.6835 76.0792 28.4793 76.7875 27.2397 77.2833C26.8501 77.4604 26.4606 77.6021 26.071 77.7437C24.6898 78.2042 23.2022 78.4167 21.7502 78.4167C20.7939 78.4167 19.8377 78.3104 18.9169 78.1333C18.4565 78.0271 17.996 77.9209 17.5356 77.7792C16.9689 77.6021 16.4377 77.425 15.9064 77.1771C15.9064 77.1416 15.9064 77.1416 15.871 77.1771C14.8793 76.6812 13.9231 76.1146 13.0377 75.4417L13.0022 75.4062C12.5418 75.0521 12.1169 74.6979 11.7273 74.2729C11.3377 73.8479 10.9481 73.4229 10.5585 72.9625C9.88557 72.0771 9.31893 71.1208 8.8231 70.1292C8.85852 70.0938 8.85852 70.0937 8.8231 70.0937C8.8231 70.0937 8.82307 70.0583 8.78765 70.0229C8.57515 69.5271 8.39805 68.9958 8.22097 68.4646C8.0793 68.0042 7.97303 67.5438 7.86678 67.0833C7.6897 66.1625 7.5835 65.2062 7.5835 64.25V16.4375C7.5835 11.125 11.1252 7.58333 16.4377 7.58333H27.0627C32.3752 7.58333 35.9168 11.125 35.9168 16.4375Z" stroke="#292D32" stroke-width="1.5" stroke-linecap="round" stroke-linejoin="round"/>
<path d="M78.4167 58.9375V69.5625C78.4167 74.875 74.875 78.4167 69.5625 78.4167H21.75C23.2021 78.4167 24.6896 78.2042 26.0708 77.7437C26.4604 77.6021 26.85 77.4604 27.2395 77.2833C28.4791 76.7875 29.6834 76.0792 30.7459 75.1583C31.0646 74.9104 31.4188 74.5917 31.7375 74.2729L31.8791 74.1312L55.9625 50.0833H69.5625C74.875 50.0833 78.4167 53.625 78.4167 58.9375Z" stroke="#292D32" stroke-width="1.5" stroke-linecap="round" stroke-linejoin="round"/>
<path d="M17.5353 77.7792C15.4103 77.1417 13.3916 75.9729 11.727 74.2729C10.027 72.6083 8.8582 70.5896 8.2207 68.4646C9.60195 72.8917 13.1082 76.398 17.5353 77.7792Z" stroke="#292D32" stroke-width="1.5" stroke-linecap="round" stroke-linejoin="round"/>
<path d="M65.5602 40.4854L55.9623 50.0833L31.8789 74.1312C34.3581 71.5812 35.9165 68.075 35.9165 64.25V30.0375L45.5143 20.4396C49.2685 16.6854 54.2977 16.6854 58.0519 20.4396L65.5602 27.9479C69.3144 31.7021 69.3144 36.7312 65.5602 40.4854Z" stroke="#292D32" stroke-width="1.5" stroke-linecap="round" stroke-linejoin="round"/>
<path d="M21.7502 67.7917C23.7062 67.7917 25.2918 66.206 25.2918 64.25C25.2918 62.294 23.7062 60.7083 21.7502 60.7083C19.7942 60.7083 18.2085 62.294 18.2085 64.25C18.2085 66.206 19.7942 67.7917 21.7502 67.7917Z" stroke="#292D32" stroke-width="1.5" stroke-linecap="round" stroke-linejoin="round"/>
</svg>
