<svg width="17" height="17" viewBox="0 0 17 17" fill="none" xmlns="http://www.w3.org/2000/svg">
<path d="M14.5004 4.98669C14.4871 4.98669 14.4671 4.98669 14.4471 4.98669C10.9204 4.63336 7.40043 4.50002 3.91377 4.85336L2.55377 4.98669C2.27377 5.01336 2.0271 4.81336 2.00043 4.53336C1.97377 4.25336 2.17377 4.01336 2.4471 3.98669L3.8071 3.85336C7.35377 3.49336 10.9471 3.63336 14.5471 3.98669C14.8204 4.01336 15.0204 4.26002 14.9938 4.53336C14.9738 4.79336 14.7538 4.98669 14.5004 4.98669Z" fill="#292D32"/>
<path d="M6.16651 4.31337C6.13984 4.31337 6.11318 4.31337 6.07984 4.30671C5.81318 4.26004 5.62651 4.00004 5.67318 3.73337L5.81984 2.86004C5.92651 2.22004 6.07318 1.33337 7.62651 1.33337H9.37318C10.9332 1.33337 11.0798 2.25337 11.1798 2.86671L11.3265 3.73337C11.3732 4.00671 11.1865 4.26671 10.9198 4.30671C10.6465 4.35337 10.3865 4.16671 10.3465 3.90004L10.1998 3.03337C10.1065 2.45337 10.0865 2.34004 9.37984 2.34004H7.63318C6.92651 2.34004 6.91318 2.43337 6.81318 3.02671L6.65984 3.89337C6.61984 4.14004 6.40651 4.31337 6.16651 4.31337Z" fill="#292D32"/>
<path d="M10.6396 15.6667H6.35961C4.03294 15.6667 3.93961 14.3801 3.86627 13.3401L3.43294 6.62672C3.41294 6.35338 3.62627 6.11338 3.89961 6.09338C4.17961 6.08005 4.41294 6.28672 4.43294 6.56005L4.86627 13.2734C4.93961 14.2867 4.96627 14.6667 6.35961 14.6667H10.6396C12.0396 14.6667 12.0663 14.2867 12.1329 13.2734L12.5663 6.56005C12.5863 6.28672 12.8263 6.08005 13.0996 6.09338C13.3729 6.11338 13.5863 6.34672 13.5663 6.62672L13.1329 13.3401C13.0596 14.3801 12.9663 15.6667 10.6396 15.6667Z" fill="#292D32"/>
<path d="M9.60672 12H7.38672C7.11339 12 6.88672 11.7733 6.88672 11.5C6.88672 11.2267 7.11339 11 7.38672 11H9.60672C9.88005 11 10.1067 11.2267 10.1067 11.5C10.1067 11.7733 9.88005 12 9.60672 12Z" fill="#292D32"/>
<path d="M10.1673 9.33337H6.83398C6.56065 9.33337 6.33398 9.10671 6.33398 8.83337C6.33398 8.56004 6.56065 8.33337 6.83398 8.33337H10.1673C10.4407 8.33337 10.6673 8.56004 10.6673 8.83337C10.6673 9.10671 10.4407 9.33337 10.1673 9.33337Z" fill="#292D32"/>
</svg>
